<svg xmlns="http://www.w3.org/2000/svg" width="100" height="100" fill="none"><g clip-path="url(#a)"><circle cx="50" cy="50" r="50" fill="#FFBC57"/><path fill="#fff" fill-rule="evenodd" d="M63.497 24.183c.371.228.598.632.598 1.067v22.38a1.25 1.25 0 1 1-2.5 0V27.295l-3.578 1.832a1.25 1.25 0 0 1-1.15-.006l-4.685-2.46-4.685 2.46a1.25 1.25 0 0 1-1.162 0l-4.685-2.46-4.685 2.46a1.25 1.25 0 0 1-1.173-.006L32.5 27.343v40.552l3.413-1.877a1.25 1.25 0 0 1 1.205 0l4.664 2.565 4.663-2.565a1.25 1.25 0 1 1 1.205 2.19l-5.266 2.897a1.25 1.25 0 0 1-1.205 0l-4.663-2.565-4.664 2.565A1.25 1.25 0 0 1 30 70.009V25.25a1.25 1.25 0 0 1 1.843-1.1l4.549 2.449 4.677-2.456a1.25 1.25 0 0 1 1.162 0l4.685 2.46 4.685-2.46a1.25 1.25 0 0 1 1.162 0l4.692 2.463 4.82-2.469a1.25 1.25 0 0 1 1.222.046Z" clip-rule="evenodd"/><path fill="#fff" fill-rule="evenodd" d="M41.848 37.098c0-.69.56-1.25 1.25-1.25h13.164a1.25 1.25 0 1 1 0 2.5H43.098c-.69 0-1.25-.56-1.25-1.25ZM35.266 50.263c0-.69.56-1.25 1.25-1.25h15.797a1.25 1.25 0 0 1 0 2.5H36.516c-.69 0-1.25-.56-1.25-1.25ZM35.266 55.529c0-.69.56-1.25 1.25-1.25h9.215a1.25 1.25 0 1 1 0 2.5h-9.215c-.69 0-1.25-.56-1.25-1.25ZM41.848 42.364c0-.69.56-1.25 1.25-1.25h9.215a1.25 1.25 0 1 1 0 2.5h-9.215c-.69 0-1.25-.56-1.25-1.25ZM35.266 37.098c0-.69.56-1.25 1.25-1.25h2.633a1.25 1.25 0 1 1 0 2.5h-2.633c-.69 0-1.25-.56-1.25-1.25ZM35.266 42.364c0-.69.56-1.25 1.25-1.25h2.633a1.25 1.25 0 1 1 0 2.5h-2.633c-.69 0-1.25-.56-1.25-1.25ZM61.528 52.83c-5.853 0-10.598 4.744-10.598 10.597s4.745 10.598 10.598 10.598c5.853 0 10.598-4.745 10.598-10.598 0-5.853-4.745-10.598-10.598-10.598ZM48.43 63.426c0-7.234 5.864-13.098 13.098-13.098 7.234 0 13.098 5.864 13.098 13.098 0 7.234-5.864 13.098-13.098 13.098-7.234 0-13.098-5.864-13.098-13.098Z" clip-rule="evenodd"/><path fill="#fff" fill-rule="evenodd" d="M60.213 59.411a1.39 1.39 0 0 0-1.383 1.383 1.39 1.39 0 0 0 1.383 1.383h2.633a3.89 3.89 0 0 1 3.883 3.883 3.89 3.89 0 0 1-3.883 3.883H57.58a1.25 1.25 0 1 1 0-2.5h5.266a1.39 1.39 0 0 0 1.383-1.383 1.39 1.39 0 0 0-1.383-1.383h-2.633a3.89 3.89 0 0 1-3.883-3.883 3.89 3.89 0 0 1 3.883-3.883h5.266a1.25 1.25 0 1 1 0 2.5h-5.266ZM66.86 63.427c0-.69.559-1.25 1.25-1.25h2.632a1.25 1.25 0 0 1 0 2.5H68.11c-.69 0-1.25-.56-1.25-1.25ZM51.063 63.427c0-.69.56-1.25 1.25-1.25h2.632a1.25 1.25 0 0 1 0 2.5h-2.633c-.69 0-1.25-.56-1.25-1.25Z" clip-rule="evenodd"/></g><defs><clipPath id="a"><path fill="#fff" d="M0 0h100v100H0z"/></clipPath></defs></svg>