<svg xmlns="http://www.w3.org/2000/svg" width="100" height="100" fill="none"><g clip-path="url(#a)"><circle cx="50" cy="50" r="50" fill="#FFBC57"/><path fill="#fff" d="M71.269 33.044H58.881v-3.378a3.726 3.726 0 0 0-3.731-3.72H28.72a3.724 3.724 0 0 0-3.72 3.72v40.668a3.723 3.723 0 0 0 3.72 3.72h26.43a3.732 3.732 0 0 0 3.73-3.72v-5.062H71.27A3.732 3.732 0 0 0 75 61.552V36.775c-.01-2.058-1.684-3.73-3.731-3.73ZM67.6 35.538v27.24h-2.4v-27.24h2.4ZM56.386 70.323a1.23 1.23 0 0 1-1.236 1.227H28.72c-.675 0-1.226-.551-1.226-1.227V29.666c0-.675.551-1.226 1.227-1.226H55.15c.675 0 1.236.55 1.236 1.226v40.657Zm2.495-34.785h3.835v27.24H58.88v-27.24Zm13.614 26.003a1.23 1.23 0 0 1-1.236 1.227h-1.164v-27.23h1.164c.675 0 1.236.551 1.236 1.227V61.54Z"/><path fill="#fff" d="M34.79 48.249h14.29a3.18 3.18 0 0 0 3.18-3.18v-9.344a3.18 3.18 0 0 0-3.18-3.18H34.79a3.18 3.18 0 0 0-3.18 3.18v9.344a3.18 3.18 0 0 0 3.18 3.18Zm-.686-12.524c0-.384.311-.686.686-.686h14.29c.384 0 .686.312.686.686v9.344a.685.685 0 0 1-.686.685H34.79a.685.685 0 0 1-.686-.685v-9.344ZM34.509 53.424h-1.653a1.25 1.25 0 0 0-1.247 1.248 1.25 1.25 0 0 0 1.247 1.247h1.653a1.25 1.25 0 0 0 1.247-1.247 1.25 1.25 0 0 0-1.247-1.248ZM42.76 53.424H41.11a1.25 1.25 0 0 0-1.248 1.248 1.25 1.25 0 0 0 1.248 1.247h1.652a1.25 1.25 0 0 0 1.247-1.247 1.25 1.25 0 0 0-1.247-1.248ZM51.025 53.424h-1.653a1.25 1.25 0 0 0-1.247 1.248 1.25 1.25 0 0 0 1.247 1.247h1.653a1.25 1.25 0 0 0 1.247-1.247 1.25 1.25 0 0 0-1.247-1.248ZM34.509 59.057h-1.653a1.25 1.25 0 0 0-1.247 1.247 1.25 1.25 0 0 0 1.247 1.248h1.653a1.25 1.25 0 0 0 1.247-1.248 1.25 1.25 0 0 0-1.247-1.247ZM42.76 59.057H41.11a1.25 1.25 0 0 0-1.248 1.247 1.25 1.25 0 0 0 1.248 1.248h1.652a1.25 1.25 0 0 0 1.247-1.248 1.25 1.25 0 0 0-1.247-1.247ZM51.025 59.057h-1.653a1.25 1.25 0 0 0-1.247 1.247 1.25 1.25 0 0 0 1.247 1.248h1.653a1.25 1.25 0 0 0 1.247-1.248 1.25 1.25 0 0 0-1.247-1.247ZM34.509 64.69h-1.653a1.25 1.25 0 0 0-1.247 1.247 1.25 1.25 0 0 0 1.247 1.248h1.653a1.25 1.25 0 0 0 1.247-1.248 1.25 1.25 0 0 0-1.247-1.247ZM42.76 64.69H41.11a1.25 1.25 0 0 0-1.248 1.247 1.25 1.25 0 0 0 1.248 1.248h1.652a1.25 1.25 0 0 0 1.247-1.248 1.25 1.25 0 0 0-1.247-1.247ZM51.025 64.69h-1.653a1.25 1.25 0 0 0-1.247 1.247 1.25 1.25 0 0 0 1.247 1.248h1.653a1.25 1.25 0 0 0 1.247-1.248 1.25 1.25 0 0 0-1.247-1.247Z"/></g><defs><clipPath id="a"><path fill="#fff" d="M0 0h100v100H0z"/></clipPath></defs></svg>