<svg xmlns="http://www.w3.org/2000/svg" width="100" height="100" fill="none"><g clip-path="url(#a)"><circle cx="50" cy="50" r="50" fill="#FFBC57"/><path fill="#fff" fill-rule="evenodd" d="M62.125 43.625a3.737 3.737 0 0 0-2.75 3.606v9.609l-2.08-1.85c-.484-.429-.89-.657-1.319-.792-.447-.141-.99-.204-1.789-.204-3.442 0-6.494 2.508-6.494 5.706a1.25 1.25 0 0 1-2.5 0c0-4.939 4.561-8.206 8.994-8.206.908 0 1.743.068 2.542.32l.146.048v-4.63a6.235 6.235 0 0 1 6.237-6.238h1.513v18.312c0 2.99-.853 5.844-2.29 8.144a1.25 1.25 0 0 1-2.12-1.325c1.187-1.9 1.91-4.295 1.91-6.819v-15.68ZM36.994 51.625c.69 0 1.25.56 1.25 1.25v8.531c0 1.662.356 3.156 1.029 4.39a1.25 1.25 0 0 1-2.195 1.196c-.902-1.654-1.334-3.572-1.334-5.586v-8.531c0-.69.56-1.25 1.25-1.25Z" clip-rule="evenodd"/><path fill="#fff" fill-rule="evenodd" d="M35.875 66.063h28.75v5.187a1.25 1.25 0 1 1-2.5 0v-2.688h-23.75v2.688a1.25 1.25 0 1 1-2.5 0v-5.188ZM28 29.25c0-.69.56-1.25 1.25-1.25h42c.69 0 1.25.56 1.25 1.25v23.625c0 .69-.56 1.25-1.25 1.25h-7.875a1.25 1.25 0 1 1 0-2.5H70V30.5H30.5v21.125h27.625a1.25 1.25 0 1 1 0 2.5H29.25c-.69 0-1.25-.56-1.25-1.25V29.25Z" clip-rule="evenodd"/><path fill="#fff" fill-rule="evenodd" d="M49.594 35.75a5.969 5.969 0 1 0 0 11.937 5.969 5.969 0 0 0 0-11.937Zm-8.469 5.969a8.469 8.469 0 1 1 16.938 0 8.469 8.469 0 0 1-16.938 0ZM64.162 30.494c.69 0 1.25.56 1.25 1.25 0 1.672 1.278 2.95 2.95 2.95a1.25 1.25 0 1 1 0 2.5c-3.053 0-5.45-2.397-5.45-5.45 0-.69.56-1.25 1.25-1.25ZM30.625 45.919c0-.69.56-1.25 1.25-1.25 3.002 0 5.581 2.347 5.581 5.45a1.25 1.25 0 0 1-2.5 0c0-1.623-1.358-2.95-3.081-2.95-.69 0-1.25-.56-1.25-1.25ZM36.075 30.625c.69 0 1.25.56 1.25 1.25 0 2.972-2.58 5.319-5.45 5.319a1.25 1.25 0 0 1 0-2.5c1.593 0 2.95-1.329 2.95-2.819 0-.69.56-1.25 1.25-1.25ZM62.781 50.119c0-3.103 2.58-5.45 5.581-5.45a1.25 1.25 0 1 1 0 2.5c-1.722 0-3.08 1.327-3.08 2.95a1.25 1.25 0 0 1-2.5 0Z" clip-rule="evenodd"/></g><defs><clipPath id="a"><path fill="#fff" d="M0 0h100v100H0z"/></clipPath></defs></svg>