<svg xmlns="http://www.w3.org/2000/svg" width="100" height="100" fill="none"><g clip-path="url(#a)"><circle cx="50" cy="50" r="50" fill="#FFBC57"/><path fill="#fff" d="M45.556 23.556C32.748 25.746 23 36.902 23 50.333 23 65.338 35.163 77.5 50.167 77.5c13.432 0 24.587-9.749 26.777-22.557.43-2.523-1.684-4.61-4.243-4.61H54.799a4.633 4.633 0 0 1-4.632-4.633V27.8c0-2.559-2.089-4.675-4.61-4.244Z"/><path fill="#fff" d="M54.605 30.816v11.978a3.099 3.099 0 0 0 3.1 3.1h11.978c1.711 0 3.126-1.399 2.838-3.086-1.293-7.567-7.264-13.54-14.831-14.833-1.687-.286-3.084 1.13-3.084 2.841Z"/></g><defs><clipPath id="a"><path fill="#fff" d="M0 0h100v100H0z"/></clipPath></defs></svg>