<svg xmlns="http://www.w3.org/2000/svg" width="100" height="100" fill="none"><g clip-path="url(#a)"><circle cx="50" cy="50" r="50" fill="#FFBC57"/><path fill="#fff" d="m89.77 42.929-.57-1.348-3.934-2.346-4.99.036-2.725-3.264-3.14 1.268-2.5-.954-1.734.582-3.257-5.69-2.31-.197-1.559-6.069L56.815 24l-1.217 1.56-5.21-.066-1.675 2.44-.168 3.039-1.632-1.669-3.33.568-.867-1.697-6.091.517-8.481-3.62-4.765-.263-3.57 3.198 1.399 4.94-7.206 6.485.51 3.548-1.37-.59L11 45.377l3.497 4.379 6.652 1.268 1.443 1.654 5.734-1.312.707-1.399 5.45-1.304 5.821 3.512.984 3.155 1.909 1.486-.102 2.506 1.516 2.9-3.33.933-1.239 2.302-3.366 3.01 2.273 2.062 6.514-3.629 3.177-4.058 1.814-1.166 3.556-.554-.532 1.319-.168.255 2.025 2.383 6.303.029.313 1.391-5.428 3.031 4.86 2.42.044 1.602-.89 1.916 1.67 1.093 2.804-1.005 6.099-3.942 3.803.175.568-2.42-2.098-.137-3.031 1.195-2.31-2.798-4.991-3.133 6.113-.43.066.036 2.769-2.732 7.504-3.271 2.87-.263.387-3.388 2.936-1.88 3.243-.109.78-3.016-1.407-4.037 1.457-2.477Z"/></g><defs><clipPath id="a"><path fill="#fff" d="M0 0h100v100H0z"/></clipPath></defs></svg>