<svg xmlns="http://www.w3.org/2000/svg" width="100" height="100" fill="none"><g clip-path="url(#a)"><circle cx="50" cy="50" r="50" fill="#FFBC57"/><path fill="#fff" d="m76.18 33.544-5.723-5.723c-1.054-1.054-2.805-1.099-3.913-.103l-21.81 19.617c-1.107.995-2.915 1.01-4.039.032l-5.927-5.162c-1.124-.978-2.888-.917-3.942.136l-7.036 7.036a2.697 2.697 0 0 0 0 3.815l17.632 17.631 1.276 1.277c.705.704 2.084.378 3.08-.73l30.503-33.913c.998-1.108.951-2.86-.102-3.913Z"/></g><defs><clipPath id="a"><path fill="#fff" d="M0 0h100v100H0z"/></clipPath></defs></svg>