<svg xmlns="http://www.w3.org/2000/svg" width="100" height="100" fill="none"><g clip-path="url(#a)"><circle cx="50" cy="50" r="50" fill="#FFBC57"/><path fill="#fff" fill-rule="evenodd" d="M28.125 28.5c-.935 0-1.625.69-1.625 1.625v21.75c0 1.091.712 1.625 1.25 1.625h2.5a1.25 1.25 0 0 1 0 2.5h-2.5C25.538 56 24 54.034 24 51.875v-21.75C24 27.81 25.81 26 28.125 26h35.5c2.315 0 4.125 1.81 4.125 4.125V41a1.25 1.25 0 1 1-2.5 0V30.125c0-.935-.69-1.625-1.625-1.625h-35.5Z" clip-rule="evenodd"/><path fill="#fff" fill-rule="evenodd" d="M24 33.5c0-.69.56-1.25 1.25-1.25H66.5c.69 0 1.25.56 1.25 1.25v5c0 .69-.56 1.25-1.25 1.25H25.25c-.69 0-1.25-.56-1.25-1.25v-5Zm2.5 1.25v2.5h38.75v-2.5H26.5ZM36.875 46c-.935 0-1.625.69-1.625 1.625v21.75c0 .935.69 1.625 1.625 1.625H72.25c.97 0 1.75-.85 1.75-1.625v-21.75C74 46.69 73.31 46 72.375 46h-35.5Zm-4.125 1.625c0-2.315 1.81-4.125 4.125-4.125h35.5c2.315 0 4.125 1.81 4.125 4.125v21.75c0 2.224-1.969 4.125-4.25 4.125H36.875c-2.315 0-4.125-1.81-4.125-4.125v-21.75Z" clip-rule="evenodd"/><path fill="#fff" fill-rule="evenodd" d="M39 66c0-.69.56-1.25 1.25-1.25h6.25a1.25 1.25 0 1 1 0 2.5h-6.25c-.69 0-1.25-.56-1.25-1.25ZM50.25 66c0-.69.56-1.25 1.25-1.25h6.25a1.25 1.25 0 1 1 0 2.5H51.5c-.69 0-1.25-.56-1.25-1.25ZM61.5 66c0-.69.56-1.25 1.25-1.25H69a1.25 1.25 0 1 1 0 2.5h-6.25c-.69 0-1.25-.56-1.25-1.25ZM65.875 53.5a1.875 1.875 0 1 0 0 3.75 1.875 1.875 0 0 0 0-3.75ZM61.5 55.375a4.375 4.375 0 1 1 8.75 0 4.375 4.375 0 0 1-8.75 0Z" clip-rule="evenodd"/></g><defs><clipPath id="a"><path fill="#fff" d="M0 0h100v100H0z"/></clipPath></defs></svg>