<svg xmlns="http://www.w3.org/2000/svg" width="80" height="80" fill="none"><path fill="#FFBC57" d="M66.173 40.802c7.636 0 13.827-6.19 13.827-13.827 0-7.636-6.19-13.827-13.827-13.827s-13.827 6.19-13.827 13.827 6.19 13.827 13.827 13.827ZM34.272 24.704c6.545 0 11.852-5.307 11.852-11.852C46.124 6.306 40.817 1 34.272 1 27.726 1 22.42 6.306 22.42 12.852c0 6.545 5.306 11.852 11.852 11.852ZM19.753 78.53c10.91 0 19.753-8.843 19.753-19.752 0-10.91-8.844-19.753-19.753-19.753C8.843 39.025 0 47.868 0 58.778S8.844 78.53 19.753 78.53Z"/><path fill="#fff" d="M69.036 41.629 63.9 39.456H50.073a3.962 3.962 0 0 1-3.95-3.95V20.69h-6.914v39.506h27.457c.79 0 1.58-.296 2.074-.889l1.185-1.185c.593-.593.889-1.284.889-2.074V44.296c0-1.186-.691-2.272-1.778-2.667Z"/><path fill="#fff" d="m63.11 41.629-5.136-2.173h-7.9a3.962 3.962 0 0 1-3.951-3.95V20.69h-6.914v39.506h21.53c.791 0 1.581-.296 2.075-.889l1.185-1.185c.593-.593.889-1.284.889-2.074V44.296c0-1.186-.691-2.272-1.778-2.667Z"/><path fill="#fff" d="m60.938 47.357 2.962 5.926h6.914v-5.926h-9.876Z"/><path fill="#fff" d="m60.938 47.357 1.975 3.951h3.95c.593 0 .988-.395.988-.988v-2.963h-6.913Z"/><path fill="#2B2929" d="M70.814 53.975H63.9c-.296 0-.494-.198-.691-.395l-2.963-5.926a.844.844 0 0 1 0-.692c.099-.197.395-.395.593-.395h9.876c.395 0 .79.297.79.79v5.926c.099.395-.197.692-.691.692Zm-6.42-1.482h5.728V48.05h-7.9l2.172 4.444Z"/><path fill="#fff" d="M50.074 39.456H63.9L56.296 23.95c-.988-1.975-3.062-3.26-5.333-3.26h-4.84v14.815a3.962 3.962 0 0 0 3.95 3.951Z"/><path fill="#fff" d="M56.296 23.95c-.988-1.975-3.062-3.26-5.333-3.26h-4.84c2.173 0 4.247 1.285 5.235 3.26l7.605 15.506H63.9L56.296 23.95Z"/><path fill="#2B2929" d="M63.9 40.148H50.073c-2.568 0-4.741-2.074-4.741-4.642V20.69c0-.395.296-.79.79-.79h4.84c2.568 0 4.84 1.383 6.024 3.753l7.605 15.506a.843.843 0 0 1 0 .692c-.197.197-.395.296-.691.296ZM46.912 21.382v14.124c0 1.778 1.482 3.16 3.26 3.16h12.642l-7.112-14.42a5.15 5.15 0 0 0-4.642-2.864h-4.148Z"/><path fill="#fff" d="M9.58 12.79a1.981 1.981 0 0 0-1.975 1.975v43.457c0 1.086.89 1.975 1.976 1.975h29.63V14.765a1.981 1.981 0 0 0-1.976-1.975H9.581Z"/><path fill="#fff" d="M9.58 12.79a1.981 1.981 0 0 0-1.975 1.975v40.494H31.31a1.981 1.981 0 0 0 1.976-1.976V12.79H9.58Z"/><path fill="#2B2929" d="M39.21 60.889H9.58a2.76 2.76 0 0 1-2.766-2.766V14.666C6.914 13.185 8.098 12 9.58 12h27.654A2.76 2.76 0 0 1 40 14.765v45.432c0 .395-.297.692-.79.692ZM9.58 13.48c-.691 0-1.284.593-1.284 1.284v43.457c0 .691.593 1.284 1.284 1.284h28.938v-44.74c0-.692-.592-1.285-1.284-1.285H9.58Z"/><path fill="#2B2929" d="M66.667 60.888H39.21a.779.779 0 0 1-.79-.79V20.592c0-.395.296-.79.79-.79h6.914c.395 0 .79.296.79.79v14.815c0 1.778 1.481 3.16 3.259 3.16H64c.099 0 .198 0 .296.1l5.136 2.172c1.383.593 2.272 1.877 2.272 3.358v11.654c0 .988-.395 1.877-1.086 2.667l-1.186 1.185c-.889.79-1.778 1.185-2.765 1.185ZM40 59.407h26.667c.592 0 1.185-.198 1.58-.691l1.185-1.186c.395-.395.692-.987.692-1.58V44.296c0-.89-.494-1.68-1.383-2.074l-4.938-2.173H50.074c-2.568 0-4.74-2.074-4.74-4.642V21.382H39.9v38.025h.1Z"/><path fill="#fff" d="M23.406 66.123a5.926 5.926 0 1 0 0-11.852 5.926 5.926 0 0 0 0 11.852Z"/><path fill="#fff" d="M26.567 55.061c.593.89.89 1.976.89 3.062 0 3.26-2.667 5.926-5.927 5.926-1.086 0-2.172-.296-3.061-.889 1.086 1.68 2.864 2.864 5.037 2.864 3.259 0 5.926-2.666 5.926-5.926-.1-2.074-1.185-3.95-2.864-5.037Z"/><path fill="#2B2929" d="M23.407 66.814c-3.654 0-6.716-2.963-6.716-6.716 0-3.654 2.963-6.716 6.716-6.716s6.716 2.963 6.716 6.716-2.963 6.716-6.716 6.716Zm0-11.852c-2.864 0-5.234 2.37-5.234 5.235 0 2.864 2.37 5.234 5.235 5.234 2.864 0 5.234-2.37 5.234-5.234s-2.37-5.235-5.235-5.235Z"/><path fill="#fff" d="M23.407 62.172a1.975 1.975 0 1 0 0-3.95 1.975 1.975 0 0 0 0 3.95Z"/><path fill="#2B2929" d="M23.408 62.864a2.76 2.76 0 0 1-2.765-2.766 2.76 2.76 0 0 1 2.765-2.765c1.58 0 2.765 1.185 2.765 2.765s-1.185 2.766-2.765 2.766Zm0-3.951c-.691 0-1.284.593-1.284 1.284 0 .691.593 1.284 1.284 1.284.691 0 1.284-.593 1.284-1.284 0-.691-.593-1.284-1.284-1.284Z"/><path fill="#fff" d="M55.012 66.123a5.926 5.926 0 1 0 0-11.852 5.926 5.926 0 0 0 0 11.852Z"/><path fill="#fff" d="M58.173 55.061c.593.89.889 1.976.889 3.062 0 3.26-2.667 5.926-5.926 5.926-1.087 0-2.173-.296-3.062-.889 1.087 1.68 2.864 2.864 5.037 2.864 3.26 0 5.926-2.666 5.926-5.926-.099-2.074-1.185-3.95-2.864-5.037Z"/><path fill="#2B2929" d="M55.013 66.814c-3.654 0-6.716-2.963-6.716-6.716 0-3.654 2.963-6.716 6.716-6.716 3.654 0 6.716 2.963 6.716 6.716s-2.963 6.716-6.716 6.716Zm0-11.852c-2.864 0-5.235 2.37-5.235 5.235 0 2.864 2.37 5.234 5.235 5.234 2.864 0 5.235-2.37 5.235-5.234s-2.37-5.235-5.235-5.235Z"/><path fill="#fff" d="M55.012 62.172a1.975 1.975 0 1 0 0-3.95 1.975 1.975 0 0 0 0 3.95Z"/><path fill="#2B2929" d="M55.011 62.864a2.76 2.76 0 0 1-2.765-2.766 2.76 2.76 0 0 1 2.765-2.765 2.76 2.76 0 0 1 2.766 2.765c0 1.58-1.185 2.766-2.766 2.766Zm0-3.951c-.69 0-1.283.593-1.283 1.284 0 .691.592 1.284 1.283 1.284.692 0 1.284-.593 1.284-1.284 0-.691-.592-1.284-1.284-1.284ZM51.061 44.098h-3.95a.779.779 0 0 1-.79-.79c0-.395.296-.79.79-.79h3.95c.395 0 .79.296.79.79 0 .494-.296.79-.79.79Z"/><path fill="#FFBC57" d="M34.27 38.172H12.542a.779.779 0 0 1-.79-.79c0-.395.296-.79.79-.79h21.729c.395 0 .79.296.79.79 0 .494-.297.79-.79.79ZM34.27 44.098H12.542a.779.779 0 0 1-.79-.79c0-.395.296-.79.79-.79h21.729c.395 0 .79.296.79.79 0 .494-.297.79-.79.79ZM34.27 50.024H12.542a.779.779 0 0 1-.79-.79c0-.395.296-.79.79-.79h21.729c.395 0 .79.296.79.79 0 .494-.297.79-.79.79ZM34.27 32.246H12.542a.779.779 0 0 1-.79-.79c0-.395.296-.79.79-.79h21.729c.395 0 .79.296.79.79 0 .494-.297.79-.79.79Z"/><path fill="#2B2929" d="M34.27 26.32H12.542a.779.779 0 0 1-.79-.79c0-.395.296-.79.79-.79h21.729c.395 0 .79.297.79.79 0 .494-.297.79-.79.79ZM34.27 20.395H12.542a.779.779 0 0 1-.79-.79c0-.396.296-.79.79-.79h21.729c.395 0 .79.295.79.79 0 .493-.297.79-.79.79Z"/></svg>