<svg xmlns="http://www.w3.org/2000/svg" width="80" height="80" fill="none"><path fill="#FFBC57" d="M38.4 77.5c7.732 0 14-6.268 14-14s-6.268-14-14-14-14 6.268-14 14 6.268 14 14 14ZM13 38.5c6.627 0 12-5.373 12-12s-5.373-12-12-12-12 5.373-12 12 5.373 12 12 12ZM59.6 49c11.045 0 20-8.954 20-20s-8.955-20-20-20c-11.046 0-20 8.954-20 20s8.954 20 20 20Z"/><path fill="#fff" d="m70.8 35.2-28-10-28 10 28 10 28-10Z"/><path fill="#fff" d="m37.8 27-23 8.2 23 8.3V27ZM65 37.3l-22.2-7.9v15.8L65 37.3Z"/><path fill="#2B2929" d="M42.8 46h-.3l-28-10c-.3-.1-.5-.4-.5-.7 0-.3.2-.6.5-.7l28-10c.2-.1.3-.1.5 0l28 10c.3.1.5.4.5.7 0 .3-.2.6-.5.7L43 46h-.2ZM17 35.2l25.8 9.2 25.8-9.2L42.8 26 17 35.2Z"/><path fill="#fff" d="m38.8 18.2-28 10 4 7 28-10-4-7Z"/><path fill="#fff" d="m42.8 25.2-4-7-6.3 2.3 1.3 2.3c.6 1.1.1 2.5-1.1 2.9l-19.4 6.9 1.5 2.6 28-10Z"/><path fill="#2B2929" d="M14.8 36c-.3 0-.5-.1-.7-.4l-4-7c-.1-.2-.1-.4 0-.6.1-.2.2-.4.5-.4l28-10c.3-.1.7 0 .9.3l4 7c.1.2.1.4.1.6-.1.2-.2.4-.5.4L15 36h-.2Zm-2.9-7.3 3.2 5.7 26.6-9.5-3.2-5.7-26.6 9.5Z"/><path fill="#fff" d="m46.8 18.2 28 10-4 7-28-10 4-7Z"/><path fill="#2B2929" d="M70.8 36h-.3l-28-10c-.2-.1-.4-.2-.5-.4-.1-.2-.1-.4.1-.6l4-7c.2-.3.6-.5.9-.3l28 10c.2.1.4.2.5.4.1.2.1.4-.1.6l-4 7c-.1.2-.4.3-.6.3ZM43.9 24.8l26.6 9.5 3.2-5.7-26.6-9.5-3.2 5.7Z"/><path fill="#fff" d="m42.8 70.2-28-10v-25l28 10v25Z"/><path fill="#fff" d="M36.4 63.8 14.8 56V35.2l23 8.2v19.4c0 .7-.7 1.2-1.4 1Z"/><path fill="#2B2929" d="M42.8 71h-.3l-28-10c-.3-.1-.5-.4-.5-.7v-25c0-.2.1-.5.3-.6.2-.1.5-.2.7-.1l28 10c.3.1.5.4.5.7v25c0 .2-.1.5-.3.6-.1.1-.3.1-.4.1ZM15.5 59.7 42 69.2V45.8l-26.5-9.5v23.4Z"/><path fill="#fff" d="m38.8 52.2-28-10 4-7 28 10-4 7Z"/><path fill="#fff" d="m34.2 47.7-22-7.9 2.6-4.6 23.6 8.4-1.8 3.1c-.5.9-1.5 1.3-2.4 1Z"/><path fill="#2B2929" d="M38.8 53h-.3l-28-10c-.2-.1-.4-.2-.5-.4 0-.3 0-.5.1-.7l4-7c.2-.3.6-.5.9-.3l28 10c.2.1.4.2.5.4.1.2.1.4-.1.6l-4 7c-.1.3-.4.4-.6.4ZM11.9 41.8l26.6 9.5 3.2-5.7-26.6-9.5-3.2 5.7Z"/><path fill="#fff" d="m42.8 70.2 28-10v-25l-28 10v25Z"/><path fill="#fff" d="m42.8 65.8 22.7-8.1c.8-.3 1.3-1 1.3-1.9V36.7l-24 8.6v20.5Z"/><path fill="#2B2929" d="M42.8 71c-.2 0-.3 0-.4-.1-.2-.1-.3-.4-.3-.6v-25c0-.3.2-.6.5-.7l28-10c.2-.1.5 0 .7.1.2.1.3.4.3.6v25c0 .3-.2.6-.5.7L43 71h-.2Zm.7-25.2v23.4L70 59.7V36.3l-26.5 9.5Z"/><path fill="#fff" d="m46.8 52.2 28-10-4-7-28 10 4 7Z"/><path fill="#fff" d="M45.3 49.6 66.5 42c1.2-.4 1.7-1.8 1.1-2.9l-1.3-2.3-23.5 8.4 2.5 4.4Z"/><path fill="#2B2929" d="M46.8 53c-.3 0-.5-.1-.7-.4l-4-7c-.1-.2-.1-.4 0-.6.1-.2.2-.4.5-.4l28-10c.3-.1.7 0 .9.3l4 7c.1.2.1.4.1.6-.1.2-.2.4-.5.4L47 53h-.2Zm-2.9-7.3 3.2 5.7 26.6-9.5-3.2-5.7-26.6 9.5Z"/><path fill="#fff" d="M48.8 19.5v20.3h-12V19.5h-8l14-14.3 13.9 14.3h-7.9Z"/><path fill="#FFBC57" d="M43.3 39h-5.8V19.5c0-.4-.3-.8-.8-.8h-6.2L42.8 6.3 46 9.6c.1.1.2.1.3 0l.7-.8c.1-.1.1-.2 0-.3l-3.7-3.8c-.1-.1-.3-.2-.5-.2s-.4.1-.5.2L28.2 19c-.2.2-.3.5-.2.8.1.3.4.5.7.5H36v19.5c0 .4.3.8.8.8h6.5c.1 0 .2-.1.2-.2v-1.1c0-.2-.1-.3-.2-.3Z"/><path fill="#2B2929" d="m48 9.9-.8.8c-.1.1-.1.2 0 .3l7.7 7.8h-6.2c-.4 0-.8.3-.8.8V39h-2.8c-.1 0-.1.1-.1.2v1.1c0 .1.1.2.2.2h3.6c.4 0 .8-.3.8-.8V20.3h7.2c.3 0 .6-.2.7-.5.1-.3.1-.6-.2-.8l-8.9-9.1c-.1-.1-.3-.1-.4 0Z"/></svg>