<svg xmlns="http://www.w3.org/2000/svg" width="80" height="80" fill="none"><path fill="#FFBC57" d="M62.317 40.847c8.182 0 14.815-6.633 14.815-14.815 0-8.182-6.633-14.815-14.815-14.815-8.182 0-14.815 6.633-14.815 14.815 0 8.182 6.633 14.815 14.815 14.815ZM21.683 25.397c7.013 0 12.698-5.685 12.698-12.699C34.381 5.685 28.696 0 21.683 0 14.67 0 8.984 5.685 8.984 12.698c0 7.014 5.686 12.699 12.699 12.699ZM23.164 80c11.689 0 21.164-9.475 21.164-21.164 0-11.688-9.475-21.164-21.164-21.164C11.475 37.672 2 47.148 2 58.836 2 70.525 11.476 80 23.164 80Z"/><path fill="#fff" d="M39.355 23.387c-6.984.846-12.699 6.454-13.651 13.333-.53 3.703.212 7.196 1.905 10.159l-2.117 8.148 8.148-2.01c2.963 1.692 6.455 2.433 10.16 1.904 6.983-1.058 12.486-6.667 13.332-13.65 1.27-10.477-7.407-19.154-17.777-17.884Z"/><path fill="#2B2929" d="M41.365 55.873c-2.751 0-5.397-.635-7.83-2.01l-7.831 1.904c-.317.106-.53 0-.74-.212-.212-.211-.318-.529-.212-.74l1.904-7.83a16.75 16.75 0 0 1-1.799-10.371c1.059-7.408 6.985-13.122 14.392-14.074 5.185-.635 10.264 1.058 13.862 4.762 3.704 3.703 5.397 8.677 4.762 13.862-.952 7.407-6.666 13.333-14.074 14.392a9.021 9.021 0 0 1-2.434.317Zm-7.724-3.704c.105 0 .317 0 .423.106 2.963 1.693 6.243 2.222 9.63 1.799 6.666-.952 11.851-6.35 12.698-13.016.529-4.656-.953-9.312-4.339-12.593-3.28-3.28-7.936-4.867-12.592-4.338-6.667.847-12.064 6.032-13.016 12.698-.53 3.387.105 6.667 1.799 9.63.105.212.105.423.105.53l-1.693 6.983 6.879-1.693c0-.106.106-.106.106-.106Z"/><path fill="#FFBC57" d="M41.366 44.339a.835.835 0 0 1-.847-.847v-.635c0-2.54 1.482-3.703 2.646-4.55 1.058-.74 1.799-1.376 1.799-2.857 0-1.693-1.058-3.069-2.54-3.492-1.164-.317-2.434-.106-3.386.53-.952.74-1.482 1.798-1.482 2.962a.835.835 0 0 1-.846.847.835.835 0 0 1-.847-.847c0-1.693.847-3.28 2.117-4.233 1.375-1.058 3.069-1.27 4.762-.846 2.222.635 3.703 2.645 3.703 5.079 0 2.328-1.375 3.28-2.54 4.127-1.058.847-2.01 1.482-2.01 3.28v.635c.317.53 0 .847-.53.847ZM42.106 47.407a1.023 1.023 0 0 0-1.482 0c-.212.212-.317.424-.317.741 0 .318.105.53.317.741.212.212.423.317.74.317.318 0 .53-.105.742-.317.211-.212.317-.423.317-.74 0-.318-.106-.636-.317-.742Z"/><path fill="#2B2929" d="M41.364 70.9a.835.835 0 0 1-.846-.847c0-.423.317-.846.846-.846 16.508 0 29.948-13.44 29.948-29.948 0-16.296-13.44-29.735-29.947-29.735-16.403 0-29.842 13.44-29.842 29.841 0 .53-.317.847-.846.847a.835.835 0 0 1-.847-.847c0-17.354 14.074-31.534 31.429-31.534 17.354 0 31.64 14.18 31.64 31.534 0 17.355-14.18 31.535-31.535 31.535Z"/><path fill="#fff" d="M44.539 73.228h-6.35a4.245 4.245 0 0 1-4.232-4.233 4.245 4.245 0 0 1 4.233-4.233h6.349a4.245 4.245 0 0 1 4.233 4.233c0 2.434-1.8 4.233-4.233 4.233Z"/><path fill="#2B2929" d="M44.54 74.074h-6.35c-2.75 0-5.079-2.222-5.079-5.08 0-2.75 2.223-5.078 5.08-5.078h6.349c2.751 0 5.08 2.222 5.08 5.079 0 2.857-2.223 5.08-5.08 5.08Zm-6.35-8.465c-1.904 0-3.491 1.587-3.491 3.492 0 1.904 1.587 3.492 3.492 3.492h6.349c1.905 0 3.492-1.588 3.492-3.492 0-1.905-1.587-3.492-3.492-3.492h-6.35Z"/><path fill="#fff" d="M15.968 51.006c-4.656 0-8.466-3.81-8.466-8.466v-6.349c0-4.656 3.81-8.466 8.466-8.466 1.164 0 2.116.953 2.116 2.117v19.047c0 1.27-.952 2.117-2.116 2.117Z"/><path fill="#2B2929" d="M15.968 51.852c-5.079 0-9.312-4.127-9.312-9.312v-6.35c0-5.079 4.127-9.312 9.312-9.312a2.958 2.958 0 0 1 2.963 2.963V48.89c0 1.693-1.27 2.963-2.963 2.963Zm0-23.28c-4.232 0-7.724 3.492-7.724 7.724v6.35c0 4.232 3.492 7.724 7.724 7.724a1.4 1.4 0 0 0 1.376-1.375V29.947a1.4 1.4 0 0 0-1.376-1.375Z"/><path fill="#2B2929" d="M12.794 46.561a.835.835 0 0 1-.847-.847V33.016c0-.423.318-.847.847-.847.423 0 .846.318.846.847v12.698c0 .53-.317.847-.846.847Z"/><path fill="#fff" d="M66.763 51.006a2.123 2.123 0 0 1-2.117-2.117V29.842c0-1.164.953-2.117 2.117-2.117 4.656 0 8.465 3.81 8.465 8.466v6.35c0 4.761-3.703 8.465-8.465 8.465Z"/><path fill="#2B2929" d="M66.761 51.852c-1.587 0-2.857-1.27-2.857-2.963V29.841c0-1.587 1.27-2.963 2.857-2.963 5.08 0 9.313 4.127 9.313 9.313v6.349a9.259 9.259 0 0 1-9.313 9.312Zm0-23.28c-.74 0-1.27.634-1.27 1.375v19.048c0 .74.635 1.376 1.27 1.376 4.233 0 7.725-3.493 7.725-7.725v-6.35a7.7 7.7 0 0 0-7.725-7.724Z"/><path fill="#2B2929" d="M69.936 46.561a.835.835 0 0 1-.846-.847V33.016c0-.423.317-.847.846-.847.424 0 .847.318.847.847v12.698c0 .53-.317.847-.847.847Z"/><path fill="#FFBC57" d="M23.481 18.519c.106-.106.106 0 0 0-.211.106-.529.317-.846.423.423-.106.635-.212.846-.423Z"/><path fill="#fff" d="M41.365 5.503c-8.465 0-16.19 3.069-22.116 8.254-1.058.847-1.058 2.434-.106 3.386l1.27 1.27c.846.847 2.222.847 3.174.106 4.762-4.127 11.006-6.56 17.884-6.56 6.773 0 13.122 2.433 17.884 6.56.952.74 2.328.74 3.174-.106l1.27-1.27c.952-.952.952-2.54-.106-3.386-6.032-5.08-13.862-8.254-22.328-8.254Z"/><path fill="#2B2929" d="M60.837 19.895c-.74 0-1.481-.212-2.01-.741-4.868-4.233-11.006-6.455-17.46-6.455-6.35 0-12.488 2.328-17.355 6.455-1.27 1.058-3.07 1.058-4.233-.106l-1.27-1.27a3.283 3.283 0 0 1-.952-2.328c0-.846.423-1.693 1.058-2.222C24.858 7.83 32.9 4.762 41.26 4.762c8.36 0 16.403 2.963 22.646 8.466.635.529 1.058 1.376 1.058 2.222 0 .847-.317 1.693-.952 2.328l-1.27 1.27c-.318.529-1.164.847-1.905.847Zm-19.47-8.784c6.772 0 13.227 2.434 18.412 6.773.635.529 1.481.529 2.116-.106l1.27-1.27c.318-.317.423-.74.423-1.164 0-.423-.211-.846-.529-1.058-6.031-5.08-13.756-7.936-21.693-7.936-7.936 0-15.661 2.857-21.587 8.042-.318.317-.53.635-.53 1.058 0 .423.107.847.424 1.164l1.27 1.27c.529.529 1.481.635 2.116.106a27.901 27.901 0 0 1 18.307-6.879Z"/></svg>