<svg xmlns="http://www.w3.org/2000/svg" width="80" height="80" fill="none"><path fill="#FFBC57" d="M13.965 73.818c7.713 0 13.965-6.252 13.965-13.965s-6.252-13.965-13.965-13.965S0 52.14 0 59.853c0 7.712 6.252 13.965 13.965 13.965ZM36.21 24.94c6.611 0 11.97-5.359 11.97-11.97C48.18 6.36 42.821 1 36.21 1 29.6 1 24.24 6.36 24.24 12.97c0 6.611 5.36 11.97 11.97 11.97ZM60.05 78.805c11.018 0 19.95-8.931 19.95-19.95 0-11.018-8.932-19.95-19.95-19.95-11.018 0-19.95 8.932-19.95 19.95 0 11.019 8.932 19.95 19.95 19.95Z"/><path fill="#fff" d="M41.197 73.718c17.63 0 31.92-14.291 31.92-31.92 0-17.63-14.29-31.92-31.92-31.92-17.629 0-31.92 14.29-31.92 31.92 0 17.629 14.292 31.92 31.92 31.92Z"/><path fill="#2B2929" d="M41.197 74.416c-18.055 0-32.718-14.663-32.718-32.718 0-18.055 14.663-32.618 32.718-32.618 18.055 0 32.618 14.663 32.618 32.718 0 18.055-14.663 32.618-32.618 32.618Zm0-63.84c-17.257 0-31.222 13.965-31.222 31.222 0 17.157 13.965 31.222 31.222 31.222 17.157 0 31.222-13.965 31.222-31.222-.1-17.257-14.065-31.222-31.222-31.222Z"/><path fill="#fff" d="m40.6 29.828-6.285-4.19c-4.09-2.693-9.476-2.095-12.768 1.496L16.26 32.82c-.998 1.097-1.496 2.494-1.297 3.99l3.99 31.422c.2 1.596 1.696 2.793 3.292 2.593l21.746-2.693c1.596-.2 2.793-1.696 2.593-3.292l-3.89-31.421a4.676 4.676 0 0 0-2.095-3.591Z"/><path fill="#2B2929" d="M21.944 71.524c-.798 0-1.596-.3-2.294-.798a3.537 3.537 0 0 1-1.397-2.494l-3.89-31.322c-.2-1.695.3-3.391 1.496-4.588l5.287-5.686c3.591-3.89 9.377-4.588 13.766-1.596l6.284 4.19c1.397.897 2.294 2.393 2.494 4.09l3.89 31.42c.1.998-.1 1.996-.798 2.794a3.537 3.537 0 0 1-2.494 1.396l-21.745 2.694c-.3-.1-.5-.1-.599-.1Zm6.883-46.883c-2.494 0-4.888.998-6.683 2.993l-5.287 5.685c-.798.898-1.197 2.195-1.097 3.392l3.89 31.322c.1.598.399 1.097.898 1.496.498.399 1.097.499 1.695.499l21.746-2.694c.599-.1 1.097-.399 1.496-.898.4-.498.499-1.097.499-1.695l-3.89-31.422c-.2-1.197-.798-2.294-1.796-2.992l-6.384-4.09c-1.496-.997-3.292-1.596-5.087-1.596Z"/><path fill="#fff" d="m46.084 20.052-7.182-2.294c-4.588-1.496-9.675.598-11.87 4.987l-3.491 6.883a5.112 5.112 0 0 0 0 4.19L35.91 62.945c.698 1.496 2.394 2.194 3.89 1.596l20.25-8.678c1.496-.599 2.194-2.394 1.595-3.89L49.177 22.844c-.599-1.297-1.696-2.294-3.093-2.793Z"/><path fill="#2B2929" d="M38.602 65.44c-1.496 0-2.793-.899-3.491-2.295l-12.27-29.028c-.698-1.596-.598-3.291.1-4.788l3.492-6.883c2.394-4.688 7.78-6.982 12.768-5.386l7.182 2.294c1.596.499 2.893 1.696 3.491 3.192l12.37 29.127a3.74 3.74 0 0 1-1.996 4.888l-20.15 8.579c-.498.2-.997.3-1.496.3ZM35.91 18.057c-3.392 0-6.484 1.895-8.08 5.087l-3.491 6.883c-.599 1.097-.599 2.394-.1 3.59l12.37 29.028c.498 1.097 1.795 1.696 2.992 1.197l20.15-8.579c1.097-.498 1.695-1.795 1.197-2.992l-12.47-29.127c-.498-1.098-1.396-1.995-2.593-2.394l-7.182-2.295c-.898-.299-1.895-.398-2.793-.398Z"/><path fill="#2B2929" d="M35.81 32.421c-.699 0-1.297-.1-1.996-.399-1.297-.498-2.294-1.496-2.892-2.793a4.658 4.658 0 0 1 0-3.99c.498-1.296 1.496-2.294 2.793-2.892a4.658 4.658 0 0 1 3.99 0c1.296.498 2.294 1.496 2.892 2.793a4.658 4.658 0 0 1 0 3.99c-.498 1.296-1.496 2.294-2.793 2.892-.598.2-1.296.4-1.995.4Zm0-8.977c-.5 0-.998.1-1.497.3a3.894 3.894 0 0 0-1.995 1.994c-.399.898-.399 1.895 0 2.893a3.894 3.894 0 0 0 1.995 1.995c.898.399 1.895.399 2.893 0A3.894 3.894 0 0 0 39.2 28.63c.399-.898.399-1.895 0-2.893-.4-.898-1.097-1.596-2.095-1.995-.3-.2-.798-.3-1.297-.3Z"/><path fill="#2B2929" d="M37.407 28.431c-1.197 0-1.995-.598-2.394-1.097-.898-1.097-.998-2.793-.4-4.888.1-.399.5-.598.898-.499.4.1.599.5.5.898-.5 1.496-.4 2.893.099 3.491.3.4.798.5 1.396.5 2.394-.2 5.786-3.293 7.382-6.784 1.197-2.494.997-4.19.499-4.888-.3-.399-.798-.598-1.397-.598-1.496.1-3.491 1.396-5.187 3.391-.3.3-.698.4-1.097.1-.3-.3-.4-.698-.1-1.097 1.995-2.294 4.29-3.79 6.284-3.99 1.197-.1 2.195.299 2.793 1.197.998 1.396.798 3.79-.399 6.384-1.895 4.09-5.685 7.481-8.678 7.68 0 .2-.1.2-.2.2Z"/><path fill="#FFBC57" d="M39.7 58.556c-.1 0-.2 0-.299-.1-.399-.199-.598-.598-.399-.997l8.978-22.244c.2-.4.598-.599.997-.4.4.2.599.6.4.998l-8.978 22.244a.75.75 0 0 1-.699.5Z"/><path fill="#fff" d="M39.8 42.696c.699 1.496-.1 3.291-1.595 3.99-1.497.698-3.292-.1-3.99-1.596-.699-1.497.1-3.292 1.596-3.99 1.596-.699 3.391 0 3.99 1.596Z"/><path fill="#FFBC57" d="M37.007 47.584c-.498 0-.997-.1-1.396-.3-.898-.399-1.696-1.097-2.095-1.995-.798-1.895.1-4.09 1.995-4.987 1.895-.798 4.09.1 4.988 1.995a3.645 3.645 0 0 1 0 2.893c-.4.897-1.098 1.695-1.995 2.094-.5.2-.998.3-1.497.3Zm0-5.986c-.299 0-.598.1-.897.2-1.197.499-1.696 1.795-1.197 2.992.2.599.698.998 1.197 1.197.598.2 1.197.2 1.695 0 .599-.199.998-.698 1.197-1.197.2-.598.2-1.197 0-1.695-.299-.998-1.097-1.496-1.995-1.496Z"/><path fill="#fff" d="M54.064 48.382c.699 1.496-.1 3.291-1.596 3.99-1.496.698-3.292-.1-3.99-1.596-.698-1.497.1-3.292 1.596-3.99 1.596-.599 3.392.1 3.99 1.596Z"/><path fill="#FFBC57" d="M51.271 53.369a3.816 3.816 0 0 1-3.491-2.295c-.798-1.895.1-4.09 1.995-4.987 1.895-.798 4.09.1 4.987 1.995.798 1.895-.1 4.09-1.995 4.987-.498.2-.997.3-1.496.3Zm0-6.085c-.3 0-.599.1-.898.2-1.197.498-1.695 1.795-1.197 2.992.499 1.197 1.796 1.696 2.993 1.197 1.197-.499 1.696-1.796 1.197-2.993-.3-.798-1.197-1.396-2.095-1.396Z"/><path fill="#2B2929" d="M22.343 54.965a.682.682 0 0 1-.698-.698l-1.796-14.664c-.1-.399.2-.798.698-.798.4-.1.798.2.798.699l1.796 14.663c0 .399-.3.698-.798.798.1 0 0 0 0 0ZM23.44 63.444a.682.682 0 0 1-.698-.698l-.498-3.99c-.1-.4.2-.798.698-.798.399 0 .798.199.798.698l.499 3.99c-.1.3-.3.698-.798.798Z"/></svg>