<svg xmlns="http://www.w3.org/2000/svg" width="40" height="40" fill="none"><path fill="#FFBC57" d="M18.815 25.483c-.071.08-.138.163-.2.25a1.265 1.265 0 0 0-.15.3 1.062 1.062 0 0 0-.1.3c-.008.111-.008.223 0 .334a1.4 1.4 0 0 0 .134.633 1.501 1.501 0 0 0 .9.9 1.566 1.566 0 0 0 1.266 0 1.5 1.5 0 0 0 .9-.9c.074-.203.108-.418.1-.633A1.669 1.669 0 0 0 20 24.99a1.667 1.667 0 0 0-1.184.493ZM20 3.333a16.667 16.667 0 1 0 0 33.334 16.667 16.667 0 0 0 0-33.334Zm0 30a13.333 13.333 0 1 1 0-26.666 13.333 13.333 0 0 1 0 26.666Zm0-21.666a5 5 0 0 0-4.334 2.5 1.667 1.667 0 1 0 2.884 1.666 1.667 1.667 0 0 1 1.45-.833 1.666 1.666 0 1 1 0 3.333A1.667 1.667 0 0 0 18.332 20v1.667a1.667 1.667 0 0 0 3.333 0v-.3a5 5 0 0 0-1.666-9.7Z"/></svg>